<svg width="595" height="212" viewBox="0 0 595 212" fill="none" xmlns="http://www.w3.org/2000/svg">
<path d="M255.816 122.408C253.224 120.392 250.92 117.32 248.904 113.192C246.888 109.064 245.88 104.408 245.88 99.224C245.88 94.04 246.696 89.24 248.328 84.824C249.96 80.408 252.36 76.424 255.528 72.872C258.792 69.224 263.112 66.344 268.488 64.232C273.864 62.024 279.576 60.92 285.624 60.92C291.672 60.92 297.144 61.4 302.04 62.36C306.936 63.224 310.776 64.184 313.56 65.24C316.344 66.2 318.792 67.16 320.904 68.12C323.112 68.984 324.888 69.704 326.232 70.28C327.576 70.76 328.392 71.048 328.68 71.144C328.968 71.24 329.736 71.528 330.984 72.008C332.232 72.488 333.048 72.776 333.432 72.872C333.912 72.968 334.68 73.208 335.736 73.592C336.888 73.976 337.752 74.216 338.328 74.312C339 74.408 339.864 74.6 340.92 74.888C341.976 75.08 342.888 75.224 343.656 75.32C344.424 75.32 345.336 75.368 346.392 75.464C347.448 75.56 348.456 75.608 349.416 75.608C354.12 75.608 358.2 74.84 361.656 73.304C365.208 71.672 367.752 69.896 369.288 67.976C370.92 66.056 372.216 63.848 373.176 61.352C374.328 58.28 374.904 55.496 374.904 53H378.072C378.072 55.304 377.448 58.136 376.2 61.496C375.048 64.76 373.56 67.544 371.736 69.848C370.008 72.056 367.176 74.072 363.24 75.896C359.304 77.72 354.6 78.632 349.128 78.632C343.752 78.632 338.328 77.768 332.856 76.04C326.328 85.256 319.464 103.832 312.264 131.768C308.712 145.784 303.576 155.96 296.856 162.296C290.232 168.728 280.584 171.944 267.912 171.944C255.336 171.944 245.928 168.104 239.688 160.424C234.216 153.608 231.48 145.688 231.48 136.664C231.48 135.512 231.528 134.36 231.624 133.208H234.936V135.224C234.936 141.848 236.712 148.328 240.264 154.664C241.8 157.352 243.624 159.656 245.736 161.576C247.944 163.592 250.872 165.272 254.52 166.616C258.168 167.96 262.248 168.632 266.76 168.632C274.248 168.632 280.152 165.608 284.472 159.56C288.888 153.512 293.112 141.848 297.144 124.568C301.272 107.192 305.448 94.808 309.672 87.416C313.992 79.928 320.232 75.608 328.392 74.456C325.896 73.496 323.256 72.44 320.472 71.288C317.688 70.04 315 68.984 312.408 68.12C309.912 67.16 306.264 66.248 301.464 65.384C296.76 64.424 291.48 63.944 285.624 63.944C279.768 63.944 274.296 65 269.208 67.112C264.216 69.224 260.328 72.008 257.544 75.464C251.976 82.184 249.192 89.96 249.192 98.792C249.192 103.784 250.104 108.2 251.928 112.04C253.752 115.784 255.96 118.568 258.552 120.392C263.832 123.944 268.632 125.96 272.952 126.44L275.688 126.728L274.824 129.896C272.424 129.896 269.304 129.176 265.464 127.736C261.72 126.2 258.504 124.424 255.816 122.408Z" fill="#363948"/>
<path d="M349.11 97.784C351.99 94.328 355.59 92.6 359.91 92.6C364.326 92.6 367.734 93.704 370.134 95.912C372.534 98.12 373.734 101.24 373.734 105.272V106.136C378.054 97.112 383.67 92.6 390.582 92.6C397.974 92.6 401.67 96.44 401.67 104.12C401.67 107.288 400.614 110.648 398.502 114.2C396.39 117.752 394.278 121.16 392.166 124.424C390.054 127.592 388.998 130.424 388.998 132.92H385.542C385.542 129.368 387.606 124.568 391.734 118.52C395.862 112.472 397.926 107.816 397.926 104.552C397.926 101.192 397.254 98.936 395.91 97.784C394.662 96.536 392.742 95.912 390.15 95.912C387.654 95.912 385.158 97.016 382.662 99.224C380.262 101.432 378.246 104.216 376.614 107.576C374.022 112.568 372.294 116.648 371.43 119.816V119.96L366.246 148.616H348.966L358.47 95.48C355.59 95.768 353.19 97.112 351.27 99.512L349.11 97.784Z" fill="#363948"/>
<path d="M455.469 149.912C447.021 149.912 442.413 146.216 441.645 138.824C437.421 146.216 432.093 149.912 425.661 149.912C419.229 149.912 414.093 147.992 410.253 144.152C406.509 140.216 404.637 134.744 404.637 127.736C404.637 116.792 407.325 108.2 412.701 101.96C418.077 95.72 425.037 92.6 433.581 92.6C440.589 92.6 445.245 95.912 447.549 102.536C448.029 99.656 448.557 96.776 449.133 93.896C456.237 93.896 461.517 93.608 464.973 93.032L466.845 92.6L456.909 147.032C459.789 146.744 462.189 145.4 464.109 143L466.269 144.728C463.389 148.184 459.789 149.912 455.469 149.912ZM420.909 135.08C420.909 139.4 421.437 142.424 422.493 144.152C423.645 145.784 425.373 146.6 427.677 146.6C429.981 146.6 432.333 145.352 434.733 142.856C437.901 139.592 440.445 135.464 442.365 130.472C442.653 129.224 443.181 126.248 443.949 121.544C444.813 116.744 445.533 112.808 446.109 109.736C445.821 106.088 444.813 102.92 443.085 100.232C441.357 97.544 439.197 96.2 436.605 96.2C431.901 96.2 428.109 100.424 425.229 108.872C422.349 117.224 420.909 125.96 420.909 135.08Z" fill="#363948"/>
<path d="M512.115 110.456C510.099 108.44 509.091 105.992 509.091 103.112C509.091 100.232 510.099 97.784 512.115 95.768C514.131 93.656 516.387 92.6 518.883 92.6C521.475 92.6 523.635 93.272 525.363 94.616C527.187 95.864 528.483 97.496 529.251 99.512C529.347 99.608 529.395 99.704 529.395 99.8V99.944C530.547 102.44 531.123 106.088 531.123 110.888C531.123 115.592 530.547 119.912 529.395 123.848C528.339 127.784 526.659 131.816 524.355 135.944C522.147 139.976 518.883 143.336 514.563 146.024C510.243 148.616 505.155 149.912 499.299 149.912C493.443 149.912 488.547 147.992 484.611 144.152C480.771 140.312 478.851 135.896 478.851 130.904C478.851 125.912 479.715 119.768 481.443 112.472C483.267 105.08 484.275 99.416 484.467 95.48C482.931 95.576 481.443 96.152 480.003 97.208C478.563 98.168 477.507 99.128 476.835 100.088L475.827 101.528L473.667 99.8C473.955 99.224 474.387 98.552 474.963 97.784C475.539 97.016 476.979 95.96 479.283 94.616C481.683 93.272 484.659 92.6 488.211 92.6C491.763 92.6 494.595 93.752 496.707 96.056C498.915 98.36 500.019 101.288 500.019 104.84C500.019 108.392 499.059 113.912 497.139 121.4C495.219 128.792 494.259 134.024 494.259 137.096C494.259 140.072 494.931 142.424 496.275 144.152C497.715 145.88 499.731 146.744 502.323 146.744C508.755 146.744 514.611 143.24 519.891 136.232C525.171 129.224 527.811 121.4 527.811 112.76C527.811 112.088 527.715 111.08 527.523 109.736C525.507 112.232 522.915 113.48 519.747 113.48C516.675 113.48 514.131 112.472 512.115 110.456Z" fill="#363948"/>
<path d="M560.557 149.912C553.165 149.912 547.549 148.088 543.709 144.44C539.869 140.696 537.949 136.04 537.949 130.472C537.949 124.808 538.429 120.008 539.389 116.072C540.445 112.04 542.125 108.2 544.429 104.552C546.733 100.808 550.189 97.88 554.797 95.768C559.501 93.656 565.309 92.6 572.221 92.6C579.229 92.6 584.653 94.472 588.493 98.216C592.429 101.864 594.397 106.904 594.397 113.336C594.397 124.28 591.469 133.112 585.613 139.832C579.853 146.552 571.501 149.912 560.557 149.912ZM554.221 135.08C554.221 142.76 556.429 146.6 560.845 146.6C565.357 146.6 569.341 142.76 572.797 135.08C576.349 127.304 578.125 118.088 578.125 107.432C578.125 99.368 575.917 95.336 571.501 95.336C567.181 95.336 563.197 99.032 559.549 106.424C555.997 113.72 554.221 123.272 554.221 135.08Z" fill="#363948"/>
<path d="M206.68 79.8921C111.187 153.313 48.2996 151.144 3.18782 130.59C1.10599 122.349 0 113.72 0 104.833C0 46.9351 46.9351 0 104.833 0C154.136 0 195.49 34.0353 206.68 79.8921Z" fill="#FF6647"/>
<path d="M29.3734 182.526C48.2373 200.772 73.9323 212 102.25 212C160.147 212 207.082 165.065 207.082 107.167C207.082 104.148 207.332 100.191 207.082 97.236C144.481 151.485 82.7484 194.203 29.3734 182.526Z" fill="#21D2CC"/>
</svg>
